# xmcd CD database file
#
# Track frame offsets:
#	150
#	16152
#	33865
#	48146
#	64047
#	91501
#	104429
#	122182
#	141357
#	156143
#	176761
#	191266
#	210638
#
# Disc length: 2841 seconds
#
# Revision: 2
# Processed by: cddbd v1.5.2PL0 Copyright (c) Steve Scherf et al.
# Submitted via: CDex 1.70beta2
#
DISCID=a30b170d
DTITLE=Niels von der Leyen Trio and K. C. Miller - Boogie Woogie Meeting
DYEAR=2012
DGENRE=Jazz
TTITLE0=Boogie Woogie Meeting
TTITLE1=Finest Hour
TTITLE2=Find you a job
TTITLE3=Boogie woogie country girl
TTITLE4=3:00 am blues
TTITLE5=Full steam ahead
TTITLE6=Lazy afternoon boogie
TTITLE7=Walking blues
TTITLE8=Low down dog
TTITLE9=Panther's blues
TTITLE10=I'm ready
TTITLE11=Rivers
TTITLE12=The end of the Meeting
EXTD=YEAR: 2012
EXTT0=
EXTT1=
EXTT2=
EXTT3=
EXTT4=
EXTT5=
EXTT6=
EXTT7=
EXTT8=
EXTT9=
EXTT10=
EXTT11=
EXTT12=
PLAYORDER=
